<?xml version="1.0" encoding="utf-8"?>
<!-- Generator: Adobe Illustrator 16.0.4, SVG Export Plug-In . SVG Version: 6.00 Build 0)  -->
<!DOCTYPE svg PUBLIC "-//W3C//DTD SVG 1.1//EN" "http://www.w3.org/Graphics/SVG/1.1/DTD/svg11.dtd">
<svg version="1.1" id="Layer_1" xmlns="http://www.w3.org/2000/svg" xmlns:xlink="http://www.w3.org/1999/xlink" x="0px" y="0px"
	 width="211px" height="54px" viewBox="0 0 211 54" enable-background="new 0 0 211 54" xml:space="preserve">
<g id="Layer_1_1_" display="none">
	<rect x="-48.333" y="-54" display="inline" fill="#357D8C" width="624.333" height="383.334"/>
</g>
<g id="Layer_2">
	<g>
		<g>
			<g>
				<path fill="#FFFFFF" d="M62.396,13.649V4.471h2.675v9.179L62.396,13.649L62.396,13.649z"/>
				<path fill="#FFFFFF" d="M69.613,13.488h21.688V1.325h-2.677v9.747H72.417c0.002-0.013,0.002-0.027,0.005-0.042
					c0.044-0.245,0.161-3.062,3.617-3.062h-0.125V5.497l0.089,0.005c-6.134,0-6.392,4.631-6.392,5.574L69.613,13.488z"/>
				<path fill="#FFFFFF" d="M94.557,5.551l0.033,7.305c0,0.833-0.217,1.465-0.651,1.893c-0.434,0.43-1.103,0.643-2.006,0.643h-0.685
					v2.104l0.754-0.001c0.866,0,1.628-0.093,2.274-0.276c0.65-0.187,1.191-0.478,1.626-0.872c0.435-0.392,0.757-0.899,0.974-1.518
					c0.213-0.621,0.321-1.371,0.321-2.252V5.551H94.557z"/>
				<path fill="#FFFFFF" d="M60.387,5.66h-2.675v5.574h-8.637V5.598h-0.013V5.59l-2.626,0.026c-4.72,0.263-5.665,2.897-5.665,5.63
					c0,1.994,0,2.299,0,2.299h5.615h0.03c-0.087,0.521-0.284,0.94-0.596,1.25c-0.435,0.428-1.104,0.643-2.007,0.643h-1.758v2.105
					l1.828-0.003c0.867,0,1.625-0.092,2.273-0.277c0.65-0.186,1.191-0.475,1.625-0.868c0.433-0.395,0.76-0.9,0.974-1.521
					c0.126-0.36,0.209-0.773,0.261-1.225h11.371V5.66z M46.386,11.046h-3.064c0-3.268,3.064-3.04,3.064-3.04V11.046z"/>
				<path fill="#FFFFFF" d="M116.677,5.66h-2.675v5.574h-6.798V5.598h-0.019V5.59l-2.625,0.026c-4.721,0.263-5.665,2.897-5.665,5.63
					c0,1.994,0,2.299,0,2.299h5.614h0.033c-0.085,0.521-0.283,0.94-0.599,1.25c-0.436,0.428-1.104,0.643-2.007,0.643h-1.758v2.105
					l1.827-0.003c0.867,0,1.629-0.092,2.278-0.277c0.646-0.186,1.189-0.475,1.625-0.868c0.433-0.395,0.757-0.9,0.974-1.521
					c0.124-0.36,0.207-0.773,0.258-1.225h9.535L116.677,5.66L116.677,5.66z M104.511,11.046h-3.065c0-3.268,3.065-3.04,3.065-3.04
					V11.046z"/>
				<path fill="#FFFFFF" d="M142.167,5.66v5.574h-6.631V5.66h-2.677v5.574h-5.827V5.598h-0.017V5.59l-2.623,0.026
					c-4.721,0.263-5.666,2.897-5.666,5.63c0,1.994,0,2.299,0,2.299h5.612h0.034c-0.087,0.521-0.285,0.94-0.598,1.25
					c-0.437,0.428-1.104,0.643-2.01,0.643h-1.76v2.105l1.833-0.003c0.864,0,1.623-0.092,2.272-0.277
					c0.648-0.186,1.191-0.475,1.627-0.868c0.434-0.395,0.757-0.9,0.973-1.521c0.126-0.36,0.21-0.773,0.26-1.225h7.314h1.249h9.307
					V5.66H142.167z M124.34,11.046h-3.062c0-3.268,3.062-3.04,3.062-3.04V11.046z"/>
				<path fill="#FFFFFF" d="M34.879,5.562h-5.361V0.801h-2.675v4.762v5.584h-8.497V5.556L8.852,5.553v2.492h0.08
					c2.095,0.016,2.742,0.936,2.742,1.776c0,1.396-1.756,2.009-3.5,1.972H7.249c-4.062,0-3.842-2.691-3.842-2.691V5.563H0.599
					l-0.005,3.82c0,2.586,2.971,4.511,6.249,4.511H8.58c5.906,0,5.758-3.968,5.758-3.968c0.029-0.715-0.149-1.34-0.463-1.881h1.793
					v5.467l18.948-0.002c4.629,0,4.901-3.288,4.901-3.945C39.519,9.564,39.698,5.562,34.879,5.562z M34.705,11.067h-5.186v-3.09
					h5.133c1.883,0,2.147,1.113,2.147,1.568C36.799,9.977,36.765,11.067,34.705,11.067z"/>
				<circle fill="#FFFFFF" cx="32.562" cy="3.354" r="1.25"/>
				<path fill="#FFFFFF" d="M144.691,3.354c0,0.69-0.56,1.251-1.252,1.251c-0.689,0-1.248-0.561-1.248-1.251s0.559-1.25,1.248-1.25
					C144.132,2.104,144.691,2.664,144.691,3.354z"/>
				<circle fill="#FFFFFF" cx="14.514" cy="16.246" r="1.249"/>
				<circle fill="#FFFFFF" cx="56.975" cy="16.336" r="1.25"/>
				<g>
					<circle fill="#FFFFFF" cx="6.221" cy="16.246" r="1.25"/>
					<circle fill="#FFFFFF" cx="9.084" cy="16.246" r="1.25"/>
				</g>
				<g>
					<circle fill="#FFFFFF" cx="111.535" cy="16.336" r="1.25"/>
					<circle fill="#FFFFFF" cx="114.396" cy="16.336" r="1.25"/>
				</g>
				<g>
					<circle fill="#FFFFFF" cx="131.57" cy="16.336" r="1.251"/>
					<circle fill="#FFFFFF" cx="134.436" cy="16.336" r="1.25"/>
				</g>
				<path fill="#FFFFFF" d="M63.866,3.128V3.114c0-0.124,0.021-0.242,0.06-0.354c0.039-0.111,0.097-0.208,0.168-0.292
					c0.073-0.083,0.16-0.148,0.257-0.196c0.095-0.047,0.2-0.069,0.481-0.07V1.381c-0.415,0.003-0.648,0.047-0.857,0.136
					C63.76,1.61,63.576,1.735,63.42,1.893c-0.155,0.159-0.277,0.345-0.363,0.557c-0.089,0.214-0.133,0.439-0.133,0.679V3.14
					c0,0.015,0.003,0.026,0.003,0.039H62.39V4.05h2.714V3.179h-1.235C63.869,3.162,63.866,3.146,63.866,3.128z"/>
				<path fill="#FFFFFF" d="M81.36,7.588V7.57c0-0.167,0.027-0.323,0.081-0.471c0.053-0.147,0.127-0.276,0.226-0.388
					c0.095-0.112,0.211-0.199,0.341-0.264c0.126-0.062,0.268-0.091,0.642-0.093V5.263c-0.553,0.002-0.865,0.061-1.142,0.181
					c-0.288,0.122-0.533,0.288-0.738,0.5c-0.208,0.212-0.369,0.459-0.485,0.743c-0.118,0.283-0.176,0.584-0.176,0.901v0.017
					c0,0.019,0.003,0.035,0.003,0.054H79.4v1.159h3.614v-1.16h-1.648C81.364,7.635,81.36,7.611,81.36,7.588z"/>
				<path fill="#FFFFFF" d="M204.504,5.502l-3.75-0.005V7.97h3.719c3.455,0,3.568,2.816,3.615,3.062
					c0.002,0.014,0.002,0.028,0.006,0.041h-13.201V1.326h-2.676v12.162h18.682v-2.412C210.898,10.133,210.641,5.502,204.504,5.502z"
					/>
				<circle fill="#FFFFFF" cx="204.314" cy="16.336" r="1.25"/>
				<circle fill="#FFFFFF" cx="154.125" cy="3.355" r="1.25"/>
				<circle fill="#FFFFFF" cx="156.984" cy="3.355" r="1.25"/>
				<path fill="#FFFFFF" d="M184.641,5.451l-2.625-0.025v0.01H182v5.636h-10.295c-0.062-0.236-0.1-0.48-0.1-0.739v-0.035
					c0-0.35,0.055-0.676,0.164-0.982c0.107-0.307,0.269-0.575,0.469-0.809c0.203-0.23,0.441-0.414,0.715-0.548
					c0.271-0.133,0.576-0.198,0.912-0.198c0.473,0,0.869,0.093,1.189,0.278c0.317,0.184,0.627,0.434,0.93,0.746l1.613-1.735
					c-0.439-0.488-0.947-0.87-1.527-1.148c-0.577-0.277-1.309-0.418-2.189-0.418c-0.718,0-1.375,0.13-1.972,0.383
					c-0.597,0.255-1.108,0.602-1.537,1.043c-0.429,0.44-0.767,0.955-1.009,1.545c-0.244,0.591-0.365,1.217-0.365,1.879v0.033
					c0,0.24,0.023,0.476,0.057,0.707h-9.979v-5.54h-3.082c-5.418,0-6.338,3.97-6.452,5.538h-0.008v0.119
					c-0.009,0.167-0.009,0.301-0.003,0.389v0.035h0.003v1.873h40.78v-2.416h-0.01C190.303,8.345,189.355,5.716,184.641,5.451z
					 M152.268,11.072c-0.006-0.383-0.107-3.123,3.727-3.123h0.408v3.123H152.268z M184.693,11.063V7.842
					c0,0,3.062-0.228,3.062,3.222L184.693,11.063L184.693,11.063z"/>
			</g>
			<path fill="#FFFFFF" d="M97.249,32.262h3.097l6.541,15.37h-3.513l-1.395-3.424h-6.453l-1.395,3.424h-3.423L97.249,32.262z
				 M100.782,41.243l-2.029-4.947l-2.026,4.947H100.782z"/>
			<path fill="#FFFFFF" d="M108.4,32.371h7.082c1.746,0,3.117,0.48,3.99,1.354c0.697,0.696,1.047,1.547,1.047,2.594v0.045
				c0,1.72-0.916,2.68-2.006,3.289c1.766,0.677,2.856,1.703,2.856,3.75v0.043c0,2.791-2.269,4.188-5.713,4.188H108.4V32.371z
				 M114.764,38.54c1.482,0,2.422-0.479,2.422-1.612v-0.044c0-1.003-0.785-1.569-2.203-1.569h-3.312v3.227L114.764,38.54
				L114.764,38.54z M115.658,44.688c1.482,0,2.376-0.522,2.376-1.656v-0.042c0-1.025-0.765-1.657-2.484-1.657h-3.88v3.355H115.658z"
				/>
			<path fill="#FFFFFF" d="M122.691,41.091v-8.72h3.354v8.632c0,2.486,1.244,3.772,3.293,3.772c2.048,0,3.291-1.243,3.291-3.662
				v-8.742h3.356v8.611c0,4.621-2.594,6.888-6.69,6.888C125.197,47.87,122.691,45.582,122.691,41.091"/>
			<path fill="#FFFFFF" d="M142.938,32.371h5.951c4.797,0,8.109,3.293,8.109,7.586v0.044c0,4.295-3.312,7.631-8.109,7.631h-5.951
				V32.371z M148.889,44.6c2.746,0,4.602-1.851,4.602-4.555v-0.044c0-2.702-1.854-4.599-4.602-4.599h-2.593V44.6H148.889z"/>
			<polygon fill="#FFFFFF" points="158.637,32.371 161.995,32.371 161.995,38.41 168.184,38.41 168.184,32.371 171.54,32.371 
				171.54,47.632 168.184,47.632 168.184,41.508 161.995,41.508 161.995,47.632 158.637,47.632 			"/>
			<path fill="#FFFFFF" d="M179.882,32.262h3.095l6.537,15.37h-3.509l-1.396-3.424h-6.45l-1.397,3.424h-3.422L179.882,32.262z
				 M183.41,41.243l-2.025-4.947l-2.027,4.947H183.41z"/>
			<path fill="#FFFFFF" d="M191.316,32.371h7.086c1.742,0,3.117,0.48,3.988,1.354c0.696,0.696,1.047,1.547,1.047,2.594v0.045
				c0,1.72-0.916,2.68-2.006,3.289c1.768,0.677,2.854,1.703,2.854,3.75v0.043c0,2.791-2.266,4.188-5.711,4.188h-7.258V32.371
				L191.316,32.371z M197.684,38.54c1.48,0,2.418-0.479,2.418-1.612v-0.044c0-1.003-0.785-1.569-2.201-1.569h-3.312v3.227
				L197.684,38.54L197.684,38.54z M198.574,44.688c1.484,0,2.379-0.522,2.379-1.656v-0.042c0-1.025-0.764-1.657-2.486-1.657h-3.879
				v3.355H198.574z"/>
			<rect x="206" y="32.371" fill="#FFFFFF" width="3.355" height="15.261"/>
			<rect x="86.255" y="26.754" fill="#FFFFFF" width="0.584" height="26.801"/>
			<g>
				<path fill="#FFFFFF" d="M34.364,32.423h3.088l7.131,9.374v-9.374h3.306v15.226h-2.85l-7.369-9.68v9.68h-3.306V32.423z"/>
				<path fill="#FFFFFF" d="M55.411,41.645l-5.85-9.222h3.914l3.631,6.111l3.698-6.111h3.805l-5.852,9.158v6.065H55.41
					L55.411,41.645L55.411,41.645z"/>
				<path fill="#FFFFFF" d="M66.042,41.123v-8.7h3.349v8.612c0,2.48,1.239,3.764,3.284,3.764c2.043,0,3.283-1.24,3.283-3.652v-8.724
					h3.35v8.593c0,4.607-2.588,6.869-6.676,6.869C68.541,47.885,66.042,45.604,66.042,41.123z"/>
			</g>
			<g>
				<path fill="#FFFFFF" d="M27,54H0V27h27V54L27,54z M12.567,50.844c0.031,0.19,0.441,0.281,0.533,0l0.943-7.479H11.75
					L12.567,50.844L12.567,50.844z M14.844,42.82v-1.131h-3.897v1.131H14.844L14.844,42.82z M13.721,41.137
					c4.94,0.178,5.29-4.324,5.31-6.009c0.002-0.097-0.045-0.106-0.07-0.039c-0.145,0.351-0.79,1.606-2.57,2.371
					c-1.59,0.683-2.548,2.231-2.713,3.622C13.668,41.117,13.698,41.134,13.721,41.137z M13.178,40.811
					c0.781-3.748,3.833-3.84,4.106-4.551c0.427-1.109-0.354-3.078-0.552-3.311c-0.021-0.025-0.048-0.01-0.056,0.011
					c-0.415,0.909-1.086,1.772-1.577,2.171c-0.691,0.557-3.341,2.521-1.986,5.682C13.131,40.852,13.168,40.842,13.178,40.811z
					 M12.639,40.961c-1.655-3.535,1.652-5.816,2.193-6.312c0.077-0.068,0.057-0.133,0.057-0.213c0.002-1.111-0.634-2.912-0.844-3.17
					c-0.029-0.039-0.055-0.023-0.066,0.019c-0.283,1.098-1.791,2.731-2.092,3.089c-2.555,3.038-1.971,4.888,0.698,6.632
					C12.617,41.025,12.659,41,12.639,40.961z M11.898,41.082c-2.768-1.65-2.49-4.007-1.344-5.743
					c0.026-0.036,0.033-0.096,0.026-0.167c-0.049-0.412-0.499-1.455-0.686-1.736c-0.049-0.074-0.09-0.067-0.094-0.018
					c-0.016,0.473-0.553,1.652-1.373,3.016c-0.874,1.448-0.875,4.592,3.459,4.715C11.928,41.148,11.94,41.107,11.898,41.082z"/>
			</g>
		</g>
	</g>
	<rect id="_x3C_Slice_x3E_" display="none" fill="none" width="211" height="54"/>
</g>
</svg>
